<svg width="651" height="200" viewBox="0 0 651 200" fill="none" xmlns="http://www.w3.org/2000/svg">
<path d="M173.79 38.6509L159.229 60.9479C158.69 61.773 159.08 62.8846 160.016 63.1928L178.986 69.4384C179.435 69.5863 179.788 69.9375 179.939 70.386L183.298 80.3981C184.835 85.5812 186.372 84.6588 192.125 83.7596C196.606 82.8579 198.583 80.8813 198.087 78.0284C191.955 54.612 185.971 48.7273 181.519 41.1216C177.958 35.037 174.882 36.9393 173.79 38.6509Z" fill="#5B4DFF"/>
<path d="M165.761 34.2393C166.701 33.2989 167.172 32.8287 167.503 32.2972C168.631 30.4897 168.54 27.9032 167.289 26.179C166.921 25.672 166.478 25.2869 165.592 24.5167C149.881 10.8642 130.248 2.41376 109.411 0.444051C86.2438 -1.74589 63.0382 4.21227 43.7917 17.2922C24.5452 30.3721 10.4629 49.7547 3.97064 72.1011C-2.5216 94.4475 -1.01726 118.358 8.22452 139.715C17.4663 161.072 33.8668 178.536 54.6009 189.101C75.335 199.665 99.1043 202.668 121.814 197.592C144.524 192.516 164.753 179.678 179.015 161.291C191.844 144.753 199.123 124.657 199.926 103.858C199.971 102.685 199.994 102.098 199.876 101.483C199.475 99.3905 197.652 97.554 195.562 97.1386C194.948 97.0164 194.283 97.0373 192.954 97.0791V97.0791C191.467 97.1258 190.723 97.1492 190.171 97.2832C188.101 97.7856 186.704 99.1567 186.163 101.217C186.019 101.767 185.977 102.61 185.893 104.297C185.016 121.835 178.784 138.747 167.953 152.71C155.687 168.523 138.291 179.564 118.76 183.929C99.2297 188.295 78.7881 185.712 60.9568 176.627C43.1255 167.541 29.021 152.522 21.0731 134.155C13.1252 115.788 11.8314 95.2249 17.4148 76.007C22.9981 56.7891 35.1089 40.12 51.6609 28.8713C68.2128 17.6226 88.1696 12.4986 108.093 14.3819C125.686 16.0449 142.281 23.0797 155.665 34.4458C156.953 35.539 157.596 36.0856 158.096 36.3567C159.968 37.3731 161.924 37.2935 163.707 36.1282C164.183 35.8174 164.709 35.2914 165.761 34.2393V34.2393Z" fill="#F6F7FA"/>
<path d="M71.5564 135.562L99.2425 60.0535C99.3032 59.8881 99.3253 59.7112 99.3677 59.5402C99.6022 58.5936 101.131 57.2033 105.956 57.633C111.253 58.1048 112.099 61.237 111.86 62.7441L94.268 125.583C94.0062 126.518 94.6835 127.452 95.6542 127.487C103.641 127.774 117.752 128.309 122.684 128.598C129.376 128.992 128.785 131.547 127.801 137.248C127.046 141.624 124.298 142.247 122.86 142.002C122.742 141.981 122.629 141.966 122.51 141.967C108.929 142.032 80.9415 142.122 76.2384 141.966C71.6041 141.812 71.1378 137.86 71.4936 135.792C71.5072 135.713 71.5289 135.638 71.5564 135.562Z" fill="#F6F7FA"/>
<path d="M249.38 149V51.0002H264.92V134.44H312.8V149H249.38ZM360.634 150.68C352.141 150.68 344.721 148.86 338.374 145.22C332.027 141.58 327.081 136.447 323.534 129.82C320.081 123.194 318.354 115.307 318.354 106.16V93.5602C318.354 84.5069 320.081 76.6669 323.534 70.0402C327.081 63.4136 332.027 58.3269 338.374 54.7802C344.721 51.1402 352.141 49.3202 360.634 49.3202C369.034 49.3202 376.361 51.1402 382.614 54.7802C388.961 58.3269 393.907 63.4136 397.454 70.0402C401.001 76.6669 402.774 84.5069 402.774 93.5602V106.16C402.774 115.307 401.001 123.194 397.454 129.82C393.907 136.447 388.961 141.58 382.614 145.22C376.361 148.86 369.034 150.68 360.634 150.68ZM360.634 136.12C368.381 136.12 374.727 133.554 379.674 128.42C384.714 123.287 387.234 115.634 387.234 105.46V94.4002C387.234 84.3202 384.714 76.7136 379.674 71.5802C374.727 66.4469 368.381 63.8802 360.634 63.8802C352.794 63.8802 346.401 66.4469 341.454 71.5802C336.507 76.7136 334.034 84.3202 334.034 94.4002V105.46C334.034 115.634 336.507 123.287 341.454 128.42C346.401 133.554 352.794 136.12 360.634 136.12ZM439.636 149V65.4202H407.436V51.0002H487.376V65.4202H455.176V149H439.636ZM497.569 149V134.86H515.769V65.0002H497.569V51.0002H549.509V65.0002H531.309V134.86H549.509V149H497.569ZM601.806 150.68C593.313 150.68 585.893 148.86 579.546 145.22C573.199 141.58 568.253 136.447 564.706 129.82C561.253 123.194 559.526 115.307 559.526 106.16V93.5602C559.526 84.5069 561.253 76.6669 564.706 70.0402C568.253 63.4136 573.199 58.3269 579.546 54.7802C585.893 51.1402 593.313 49.3202 601.806 49.3202C610.206 49.3202 617.533 51.1402 623.786 54.7802C630.133 58.3269 635.079 63.4136 638.626 70.0402C642.173 76.6669 643.946 84.5069 643.946 93.5602L643.806 106.16C643.899 115.494 642.079 123.567 638.346 130.38C634.613 137.1 629.526 142.187 623.086 145.64V149.7C623.086 152.874 623.973 155.16 625.746 156.56C627.519 158.054 629.853 158.8 632.746 158.8H645.626V172.52H632.466C625.093 172.52 619.353 170.607 615.246 166.78C611.139 163.047 609.086 157.494 609.086 150.12C606.659 150.494 604.233 150.68 601.806 150.68ZM575.206 105.46C575.206 110.874 575.906 115.587 577.306 119.6C578.799 123.52 580.853 126.74 583.466 129.26C583.559 122.634 585.379 117.64 588.926 114.28C592.566 110.827 597.139 109.1 602.646 109.1C607.966 109.1 612.399 110.594 615.946 113.58C619.586 116.567 621.686 120.954 622.246 126.74C624.206 124.22 625.699 121.187 626.726 117.64C627.846 114.094 628.406 110.034 628.406 105.46V94.4002C628.406 84.3202 625.886 76.7136 620.846 71.5802C615.899 66.4469 609.553 63.8802 601.806 63.8802C593.966 63.8802 587.573 66.4469 582.626 71.5802C577.679 76.7136 575.206 84.3202 575.206 94.4002V105.46ZM601.806 136.12C604.326 136.12 606.753 135.84 609.086 135.28V128.84C609.086 126.88 608.573 125.154 607.546 123.66C606.519 122.167 604.886 121.42 602.646 121.42C600.313 121.42 598.633 122.167 597.606 123.66C596.673 125.154 596.206 126.88 596.206 128.84V135.7C597.979 135.98 599.846 136.12 601.806 136.12Z" fill="#F6F7FA"/>
</svg>
