<svg width="401" height="125" viewBox="0 0 401 125" fill="none" xmlns="http://www.w3.org/2000/svg">
<path d="M-7.18236e-06 99.6799V1.67992H18.9V82.1799H66.08V99.6799H-7.18236e-06ZM114.705 101.36C106.118 101.36 98.5582 99.5866 92.0248 96.0399C85.5848 92.3999 80.5448 87.2199 76.9048 80.4999C73.3582 73.6866 71.5848 65.6133 71.5848 56.2799V44.9399C71.5848 35.6066 73.3582 27.5799 76.9048 20.8599C80.5448 14.1399 85.5848 9.00659 92.0248 5.45993C98.5582 1.81993 106.118 -7.00951e-05 114.705 -7.00951e-05C123.292 -7.00951e-05 130.805 1.81993 137.245 5.45993C143.685 9.00659 148.678 14.1399 152.225 20.8599C155.865 27.5799 157.685 35.6066 157.685 44.9399V56.2799C157.685 65.6133 155.865 73.6866 152.225 80.4999C148.678 87.2199 143.685 92.3999 137.245 96.0399C130.805 99.5866 123.292 101.36 114.705 101.36ZM114.705 83.7199C121.985 83.7199 127.818 81.2933 132.205 76.4399C136.685 71.5866 138.925 64.5866 138.925 55.4399V45.9199C138.925 36.7733 136.685 29.7733 132.205 24.9199C127.818 20.0666 121.985 17.6399 114.705 17.6399C107.332 17.6399 101.452 20.0666 97.0648 24.9199C92.6782 29.7733 90.4848 36.7733 90.4848 45.9199V55.4399C90.4848 64.5866 92.6782 71.5866 97.0648 76.4399C101.452 81.2933 107.332 83.7199 114.705 83.7199ZM193.501 99.6799V19.1799H162.141V1.67992H243.621V19.1799H212.261V99.6799H193.501ZM252.135 99.6799V83.0199H269.215V18.3399H252.135V1.67992H305.195V18.3399H288.115V83.0199H305.195V99.6799H252.135ZM357.107 101.36C348.521 101.36 340.961 99.5866 334.427 96.0399C327.987 92.3999 322.947 87.2199 319.307 80.4999C315.761 73.6866 313.987 65.6133 313.987 56.2799V44.9399C313.987 35.6066 315.761 27.5799 319.307 20.8599C322.947 14.1399 327.987 9.00659 334.427 5.45993C340.961 1.81993 348.521 -7.00951e-05 357.107 -7.00951e-05C365.694 -7.00951e-05 373.207 1.81993 379.647 5.45993C386.087 9.00659 391.081 14.1399 394.627 20.8599C398.267 27.5799 400.087 35.6066 400.087 44.9399V56.2799C400.087 65.6133 398.267 73.6399 394.627 80.3599C391.081 87.0799 386.181 92.2133 379.927 95.7599V100.24C379.927 102.853 380.721 104.767 382.307 105.98C383.894 107.287 385.901 107.94 388.327 107.94H400.927V124.18H388.047C379.834 124.18 373.674 122.313 369.567 118.58C365.461 114.847 363.314 109.013 363.127 101.08C361.167 101.267 359.161 101.36 357.107 101.36ZM332.887 55.4399C332.887 63.2799 334.567 69.5799 337.927 74.3399C338.581 68.4599 340.727 64.0266 344.367 61.0399C348.007 58.0533 352.441 56.5599 357.667 56.5599C362.894 56.5599 367.281 57.8199 370.827 60.3399C374.467 62.8599 376.847 66.5466 377.967 71.3999C380.207 67.0133 381.327 61.6933 381.327 55.4399V45.9199C381.327 36.7733 379.087 29.7733 374.607 24.9199C370.221 20.0666 364.387 17.6399 357.107 17.6399C349.734 17.6399 343.854 20.0666 339.467 24.9199C335.081 29.7733 332.887 36.7733 332.887 45.9199V55.4399ZM357.107 83.7199C359.254 83.7199 361.261 83.5333 363.127 83.1599V76.9999C363.127 75.3199 362.707 73.8733 361.867 72.6599C361.027 71.3533 359.627 70.6999 357.667 70.6999C355.707 70.6999 354.307 71.3533 353.467 72.6599C352.627 73.8733 352.207 75.3199 352.207 76.9999V83.2999C353.794 83.5799 355.427 83.7199 357.107 83.7199Z" fill="#1E1F24"/>
</svg>
